<svg version="1.1" id="Layer_1" x="0px" y="0px" viewBox="0 0 114.37 122.88" style="enable-background:new red" xmlns="http://www.w3.org/2000/svg">
    <defs></defs>
    <g>
      <path class="st0" d="M 111.15 74.12 C 108.08 75.89 104.12 74.83 102.35 71.76 L 96.47 61.58 C 96.47 78.08 96.68 98.96 96.68 115.48 C 96.68 119.55 93.35 122.87 89.29 122.87 C 85.22 122.87 81.9 119.54 81.9 115.48 L 81.9 82.93 L 77.75 82.93 L 77.75 115.49 C 77.75 119.56 74.42 122.88 70.36 122.88 C 66.29 122.88 62.97 119.55 62.97 115.49 C 62.97 99.05 63.16 78.25 63.16 61.84 L 57.43 71.77 C 55.66 74.84 51.7 75.9 48.63 74.13 C 45.56 72.36 44.5 68.4 46.27 65.33 L 61.26 39.37 C 66.61 30.11 92.53 28.97 98.3 38.96 L 113.52 65.33 C 115.28 68.39 114.22 72.35 111.15 74.12 Z M 79.88 0 C 88.03 0 94.63 6.6 94.63 14.75 C 94.63 22.9 88.03 29.5 79.88 29.5 C 71.73 29.5 65.13 22.9 65.13 14.75 C 65.13 6.6 71.74 0 79.88 0 Z" style="fill: rgb(216, 33, 33);"></path>
      <path class="st0" d="M 26.792 91.519 C 25.582 91.519 24.612 90.679 24.612 89.639 C 24.612 88.599 25.592 87.759 26.792 87.759 L 33.972 87.759 L 33.972 77.199 L 19.002 77.199 C 17.792 77.199 16.822 76.359 16.822 75.319 C 16.822 74.279 17.802 73.439 19.002 73.439 L 33.972 73.439 L 33.972 61.679 L 26.792 61.679 C 25.582 61.679 24.612 60.839 24.612 59.799 C 24.612 58.759 25.592 57.919 26.792 57.919 L 33.972 57.919 L 33.972 47.139 L 19.002 47.139 C 17.792 47.139 16.822 46.299 16.822 45.259 C 16.822 44.219 17.802 43.379 19.002 43.379 L 33.972 43.379 L 33.972 32.029 L 26.792 32.029 C 25.582 32.029 24.612 31.189 24.612 30.149 C 24.612 29.109 25.592 28.269 26.792 28.269 L 33.972 28.269 L 33.972 17.069 L 19.002 17.069 C 17.792 17.069 16.822 16.229 16.822 15.189 C 16.822 14.149 17.802 13.309 19.002 13.309 L 33.972 13.309 L 33.972 5.179 L 4.842 5.179 L 4.842 117.769 L 33.972 117.769 L 33.972 106.659 L 19.002 106.659 C 17.792 106.659 16.822 105.819 16.822 104.779 C 16.822 103.739 17.802 102.899 19.002 102.899 L 33.972 102.899 L 33.972 91.519 L 26.792 91.519 Z M 3.122 1.369 L 35.692 1.369 C 36.262 1.369 36.782 1.599 37.162 1.989 C 37.542 2.369 37.782 2.889 37.782 3.459 L 37.782 119.489 C 37.782 120.059 37.552 120.579 37.162 120.959 C 36.782 121.349 36.252 121.579 35.692 121.579 L 3.122 121.579 C 2.552 121.579 2.032 121.349 1.652 120.959 C 1.262 120.579 1.032 120.059 1.032 119.489 L 1.032 3.459 C 1.032 2.889 1.262 2.369 1.652 1.989 C 2.032 1.599 2.552 1.369 3.122 1.369 Z" style="fill: rgb(110, 184, 234);"></path>
    </g>
  </svg>